<svg xmlns="http://www.w3.org/2000/svg" xmlns:xlink="http://www.w3.org/1999/xlink" width="440" zoomAndPan="magnify" viewBox="0 0 330 89.999999" height="120" preserveAspectRatio="xMidYMid meet" version="1.0"><defs><g/><clipPath id="9b40268e09"><path d="M 75.644531 13 L 86 13 L 86 21 L 75.644531 21 Z M 75.644531 13 " clip-rule="nonzero"/></clipPath><clipPath id="e06c9fef8c"><path d="M 81 11.8125 L 104 11.8125 L 104 15 L 81 15 Z M 81 11.8125 " clip-rule="nonzero"/></clipPath><clipPath id="9faa570c0e"><path d="M 99 13 L 108.644531 13 L 108.644531 21 L 99 21 Z M 99 13 " clip-rule="nonzero"/></clipPath></defs><g fill="#ffffff" fill-opacity="1"><g transform="translate(13.866322, 64.499999)"><g><path d="M 55.390625 -40.515625 L 43.65625 0 L 37.71875 0 L 28.3125 -32.609375 L 18.546875 0 L 12.671875 0.0625 L 1.34375 -40.515625 L 6.96875 -40.515625 L 15.8125 -6.15625 L 25.578125 -40.515625 L 31.5 -40.515625 L 40.796875 -6.28125 L 49.703125 -40.515625 Z M 55.390625 -40.515625 "/></g></g></g><g fill="#ff2929" fill-opacity="1"><g transform="translate(72.811631, 64.499999)"><g><path d="M 33.53125 -17.140625 C 33.53125 -16.140625 33.472656 -15.078125 33.359375 -13.953125 L 7.90625 -13.953125 C 8.101562 -10.804688 9.175781 -8.351562 11.125 -6.59375 C 13.082031 -4.832031 15.457031 -3.953125 18.25 -3.953125 C 20.539062 -3.953125 22.445312 -4.484375 23.96875 -5.546875 C 25.5 -6.617188 26.578125 -8.046875 27.203125 -9.828125 L 32.90625 -9.828125 C 32.050781 -6.765625 30.34375 -4.273438 27.78125 -2.359375 C 25.226562 -0.441406 22.050781 0.515625 18.25 0.515625 C 15.226562 0.515625 12.523438 -0.160156 10.140625 -1.515625 C 7.753906 -2.867188 5.882812 -4.796875 4.53125 -7.296875 C 3.175781 -9.796875 2.5 -12.691406 2.5 -15.984375 C 2.5 -19.273438 3.15625 -22.160156 4.46875 -24.640625 C 5.789062 -27.117188 7.640625 -29.023438 10.015625 -30.359375 C 12.398438 -31.703125 15.144531 -32.375 18.25 -32.375 C 21.269531 -32.375 23.941406 -31.710938 26.265625 -30.390625 C 28.597656 -29.078125 30.390625 -27.265625 31.640625 -24.953125 C 32.898438 -22.648438 33.53125 -20.046875 33.53125 -17.140625 Z M 28.078125 -18.25 C 28.078125 -20.269531 27.628906 -22.003906 26.734375 -23.453125 C 25.847656 -24.910156 24.640625 -26.015625 23.109375 -26.765625 C 21.578125 -27.523438 19.878906 -27.90625 18.015625 -27.90625 C 15.347656 -27.90625 13.070312 -27.050781 11.1875 -25.34375 C 9.3125 -23.632812 8.238281 -21.269531 7.96875 -18.25 Z M 28.078125 -18.25 "/></g></g></g><g fill="#ffffff" fill-opacity="1"><g transform="translate(111.061629, 64.499999)"><g><path d="M 2.5 -16.046875 C 2.5 -19.296875 3.15625 -22.148438 4.46875 -24.609375 C 5.789062 -27.078125 7.601562 -28.988281 9.90625 -30.34375 C 12.21875 -31.695312 14.804688 -32.375 17.671875 -32.375 C 20.148438 -32.375 22.453125 -31.800781 24.578125 -30.65625 C 26.710938 -29.519531 28.34375 -28.019531 29.46875 -26.15625 L 29.46875 -43.015625 L 34.8125 -43.015625 L 34.8125 0 L 29.46875 0 L 29.46875 -5.984375 C 28.425781 -4.085938 26.875 -2.53125 24.8125 -1.3125 C 22.757812 -0.09375 20.359375 0.515625 17.609375 0.515625 C 14.785156 0.515625 12.21875 -0.175781 9.90625 -1.5625 C 7.601562 -2.957031 5.789062 -4.914062 4.46875 -7.4375 C 3.15625 -9.957031 2.5 -12.828125 2.5 -16.046875 Z M 29.46875 -15.984375 C 29.46875 -18.390625 28.984375 -20.484375 28.015625 -22.265625 C 27.046875 -24.046875 25.738281 -25.410156 24.09375 -26.359375 C 22.445312 -27.304688 20.632812 -27.78125 18.65625 -27.78125 C 16.675781 -27.78125 14.875 -27.316406 13.25 -26.390625 C 11.625 -25.460938 10.328125 -24.101562 9.359375 -22.3125 C 8.390625 -20.53125 7.90625 -18.441406 7.90625 -16.046875 C 7.90625 -13.597656 8.390625 -11.472656 9.359375 -9.671875 C 10.328125 -7.867188 11.625 -6.492188 13.25 -5.546875 C 14.875 -4.597656 16.675781 -4.125 18.65625 -4.125 C 20.632812 -4.125 22.445312 -4.597656 24.09375 -5.546875 C 25.738281 -6.492188 27.046875 -7.867188 28.015625 -9.671875 C 28.984375 -11.472656 29.46875 -13.578125 29.46875 -15.984375 Z M 29.46875 -15.984375 "/></g></g></g><g fill="#ffffff" fill-opacity="1"><g transform="translate(152.563385, 64.499999)"><g><path d="M 9.765625 -36.21875 L 9.765625 -22.671875 L 24.53125 -22.671875 L 24.53125 -18.3125 L 9.765625 -18.3125 L 9.765625 -4.359375 L 26.265625 -4.359375 L 26.265625 0 L 4.46875 0 L 4.46875 -40.578125 L 26.265625 -40.578125 L 26.265625 -36.21875 Z M 9.765625 -36.21875 "/></g></g></g><g fill="#ffffff" fill-opacity="1"><g transform="translate(184.590751, 64.499999)"><g><path d="M 2.5 -16.046875 C 2.5 -19.296875 3.15625 -22.148438 4.46875 -24.609375 C 5.789062 -27.078125 7.601562 -28.988281 9.90625 -30.34375 C 12.21875 -31.695312 14.785156 -32.375 17.609375 -32.375 C 20.398438 -32.375 22.820312 -31.769531 24.875 -30.5625 C 26.925781 -29.363281 28.457031 -27.859375 29.46875 -26.046875 L 29.46875 -31.859375 L 34.8125 -31.859375 L 34.8125 0 L 29.46875 0 L 29.46875 -5.921875 C 28.425781 -4.066406 26.867188 -2.53125 24.796875 -1.3125 C 22.722656 -0.09375 20.304688 0.515625 17.546875 0.515625 C 14.722656 0.515625 12.164062 -0.175781 9.875 -1.5625 C 7.59375 -2.957031 5.789062 -4.914062 4.46875 -7.4375 C 3.15625 -9.957031 2.5 -12.828125 2.5 -16.046875 Z M 29.46875 -15.984375 C 29.46875 -18.390625 28.984375 -20.484375 28.015625 -22.265625 C 27.046875 -24.046875 25.738281 -25.410156 24.09375 -26.359375 C 22.445312 -27.304688 20.632812 -27.78125 18.65625 -27.78125 C 16.675781 -27.78125 14.875 -27.316406 13.25 -26.390625 C 11.625 -25.460938 10.328125 -24.101562 9.359375 -22.3125 C 8.390625 -20.53125 7.90625 -18.441406 7.90625 -16.046875 C 7.90625 -13.597656 8.390625 -11.472656 9.359375 -9.671875 C 10.328125 -7.867188 11.625 -6.492188 13.25 -5.546875 C 14.875 -4.597656 16.675781 -4.125 18.65625 -4.125 C 20.632812 -4.125 22.445312 -4.597656 24.09375 -5.546875 C 25.738281 -6.492188 27.046875 -7.867188 28.015625 -9.671875 C 28.984375 -11.472656 29.46875 -13.578125 29.46875 -15.984375 Z M 29.46875 -15.984375 "/></g></g></g><g fill="#ffffff" fill-opacity="1"><g transform="translate(226.092507, 64.499999)"><g><path d="M 8.421875 -4.359375 L 24.0625 -4.359375 L 24.0625 0 L 2.390625 0 L 2.390625 -4.359375 L 17.84375 -27.546875 L 2.5 -27.546875 L 2.5 -31.859375 L 23.953125 -31.859375 L 23.953125 -27.546875 Z M 8.421875 -4.359375 "/></g></g></g><g fill="#ffffff" fill-opacity="1"><g transform="translate(254.748614, 64.499999)"><g><path d="M 8.421875 -4.359375 L 24.0625 -4.359375 L 24.0625 0 L 2.390625 0 L 2.390625 -4.359375 L 17.84375 -27.546875 L 2.5 -27.546875 L 2.5 -31.859375 L 23.953125 -31.859375 L 23.953125 -27.546875 Z M 8.421875 -4.359375 "/></g></g></g><g fill="#ffffff" fill-opacity="1"><g transform="translate(283.404721, 64.499999)"><g><path d="M 31.90625 -31.859375 L 12.734375 15 L 7.265625 15 L 13.546875 -0.34375 L 0.703125 -31.859375 L 6.5625 -31.859375 L 16.5625 -6.046875 L 26.453125 -31.859375 Z M 31.90625 -31.859375 "/></g></g></g><path fill="#ff2929" d="M 85.132812 20.285156 L 99.242188 20.285156 L 97.789062 15.445312 L 86.585938 15.445312 Z M 85.132812 20.285156 " fill-opacity="1" fill-rule="nonzero"/><g clip-path="url(#9b40268e09)"><path fill="#ff2929" d="M 75.6875 18.109375 L 83.90625 20.164062 L 85.375 15.273438 L 79.113281 13.707031 Z M 75.6875 18.109375 " fill-opacity="1" fill-rule="nonzero"/></g><g clip-path="url(#e06c9fef8c)"><path fill="#ff2929" d="M 98.164062 11.8125 L 86.210938 11.8125 L 81.378906 13.027344 L 86.210938 14.234375 L 98.164062 14.234375 L 103.003906 13.023438 Z M 98.164062 11.8125 " fill-opacity="1" fill-rule="nonzero"/></g><path fill="#ff2929" d="M 85.253906 21.496094 L 92.1875 36.957031 L 99.121094 21.496094 Z M 85.253906 21.496094 " fill-opacity="1" fill-rule="nonzero"/><path fill="#ff2929" d="M 76.375 19.527344 L 89.992188 35.027344 L 83.890625 21.40625 Z M 76.375 19.527344 " fill-opacity="1" fill-rule="nonzero"/><g clip-path="url(#9faa570c0e)"><path fill="#ff2929" d="M 99 15.273438 L 100.46875 20.164062 L 108.6875 18.109375 L 105.265625 13.707031 Z M 99 15.273438 " fill-opacity="1" fill-rule="nonzero"/></g><path fill="#ff2929" d="M 94.378906 35.027344 L 108 19.527344 L 100.484375 21.40625 Z M 94.378906 35.027344 " fill-opacity="1" fill-rule="nonzero"/></svg>